<svg xmlns="http://www.w3.org/2000/svg" xmlns:xlink="http://www.w3.org/1999/xlink" width="2000" zoomAndPan="magnify" viewBox="0 0 1500 749.999995" height="1000" preserveAspectRatio="xMidYMid meet" version="1.0"><defs><g/><clipPath id="e59885a8ca"><path d="M 1034 238 L 1473 238 L 1473 483 L 1034 483 Z M 1034 238 " clip-rule="nonzero"/></clipPath><clipPath id="12fb883066"><path d="M 1140.933594 150.105469 L 1493.167969 283.773438 L 1365.230469 620.917969 L 1012.992188 487.246094 Z M 1140.933594 150.105469 " clip-rule="nonzero"/></clipPath><clipPath id="6571eda3d3"><path d="M 1140.933594 150.105469 L 1493.167969 283.773438 L 1365.230469 620.917969 L 1012.992188 487.246094 Z M 1140.933594 150.105469 " clip-rule="nonzero"/></clipPath></defs><g fill="#0769d7" fill-opacity="1"><g transform="translate(13.077415, 457.580417)"><g><path d="M 61.125 -0.28125 C 59.289062 0.269531 56.398438 0.820312 52.453125 1.375 C 48.503906 1.925781 44.421875 2.203125 40.203125 2.203125 C 36.160156 2.203125 32.53125 1.925781 29.3125 1.375 C 26.101562 0.820312 23.394531 -0.273438 21.1875 -1.921875 C 18.988281 -3.578125 17.289062 -5.828125 16.09375 -8.671875 C 14.90625 -11.515625 14.3125 -15.234375 14.3125 -19.828125 L 14.3125 -102.4375 C 14.3125 -106.65625 15.09375 -110.28125 16.65625 -113.3125 C 18.21875 -116.34375 20.46875 -119.050781 23.40625 -121.4375 C 26.34375 -123.820312 29.96875 -125.976562 34.28125 -127.90625 C 38.59375 -129.832031 43.226562 -131.53125 48.1875 -133 C 53.144531 -134.46875 58.285156 -135.613281 63.609375 -136.4375 C 68.929688 -137.269531 74.253906 -137.6875 79.578125 -137.6875 C 88.390625 -137.6875 95.363281 -135.984375 100.5 -132.578125 C 105.644531 -129.179688 108.21875 -123.628906 108.21875 -115.921875 C 108.21875 -113.359375 107.847656 -110.835938 107.109375 -108.359375 C 106.378906 -105.878906 105.460938 -103.628906 104.359375 -101.609375 C 100.503906 -101.609375 96.554688 -101.421875 92.515625 -101.046875 C 88.484375 -100.679688 84.535156 -100.128906 80.671875 -99.390625 C 76.816406 -98.660156 73.191406 -97.882812 69.796875 -97.0625 C 66.398438 -96.238281 63.507812 -95.273438 61.125 -94.171875 Z M 61.125 -0.28125 "/></g></g></g><g fill="#0769d7" fill-opacity="1"><g transform="translate(126.251203, 457.580417)"><g><path d="M 85.09375 4.40625 C 74.257812 4.40625 64.207031 2.890625 54.9375 -0.140625 C 45.664062 -3.171875 37.585938 -7.710938 30.703125 -13.765625 C 23.816406 -19.828125 18.398438 -27.445312 14.453125 -36.625 C 10.503906 -45.800781 8.53125 -56.539062 8.53125 -68.84375 C 8.53125 -80.957031 10.503906 -91.375 14.453125 -100.09375 C 18.398438 -108.8125 23.585938 -115.96875 30.015625 -121.5625 C 36.441406 -127.164062 43.785156 -131.296875 52.046875 -133.953125 C 60.304688 -136.617188 68.75 -137.953125 77.375 -137.953125 C 87.101562 -137.953125 95.957031 -136.484375 103.9375 -133.546875 C 111.925781 -130.609375 118.8125 -126.566406 124.59375 -121.421875 C 130.382812 -116.285156 134.882812 -110.140625 138.09375 -102.984375 C 141.300781 -95.828125 142.90625 -88.023438 142.90625 -79.578125 C 142.90625 -73.335938 141.160156 -68.5625 137.671875 -65.25 C 134.191406 -61.945312 129.328125 -59.835938 123.078125 -58.921875 L 55.078125 -48.734375 C 57.085938 -42.679688 61.210938 -38.140625 67.453125 -35.109375 C 73.703125 -32.078125 80.863281 -30.5625 88.9375 -30.5625 C 96.46875 -30.5625 103.582031 -31.523438 110.28125 -33.453125 C 116.976562 -35.378906 122.441406 -37.628906 126.671875 -40.203125 C 129.609375 -38.367188 132.082031 -35.796875 134.09375 -32.484375 C 136.113281 -29.179688 137.125 -25.695312 137.125 -22.03125 C 137.125 -13.769531 133.269531 -7.617188 125.5625 -3.578125 C 119.6875 -0.460938 113.078125 1.644531 105.734375 2.75 C 98.390625 3.851562 91.507812 4.40625 85.09375 4.40625 Z M 77.375 -103.8125 C 72.96875 -103.8125 69.15625 -103.078125 65.9375 -101.609375 C 62.726562 -100.140625 60.113281 -98.253906 58.09375 -95.953125 C 56.082031 -93.660156 54.570312 -91.09375 53.5625 -88.25 C 52.550781 -85.40625 51.953125 -82.515625 51.765625 -79.578125 L 98.859375 -87.28125 C 98.304688 -90.957031 96.285156 -94.628906 92.796875 -98.296875 C 89.304688 -101.972656 84.164062 -103.8125 77.375 -103.8125 Z M 77.375 -103.8125 "/></g></g></g><g fill="#0769d7" fill-opacity="1"><g transform="translate(277.424938, 457.580417)"><g><path d="M 89.765625 -101.0625 C 85.179688 -101.0625 80.820312 -100.328125 76.6875 -98.859375 C 72.550781 -97.390625 68.96875 -95.226562 65.9375 -92.375 C 62.914062 -89.53125 60.484375 -86 58.640625 -81.78125 C 56.804688 -77.5625 55.890625 -72.601562 55.890625 -66.90625 C 55.890625 -55.53125 59.148438 -46.992188 65.671875 -41.296875 C 72.191406 -35.609375 80.128906 -32.765625 89.484375 -32.765625 C 94.992188 -32.765625 99.769531 -33.40625 103.8125 -34.6875 C 107.851562 -35.976562 111.429688 -37.359375 114.546875 -38.828125 C 118.222656 -36.253906 120.976562 -33.453125 122.8125 -30.421875 C 124.644531 -27.398438 125.5625 -23.773438 125.5625 -19.546875 C 125.5625 -12.023438 121.976562 -6.195312 114.8125 -2.0625 C 107.65625 2.0625 97.75 4.125 85.09375 4.125 C 73.519531 4.125 63.050781 2.425781 53.6875 -0.96875 C 44.332031 -4.363281 36.300781 -9.132812 29.59375 -15.28125 C 22.894531 -21.425781 17.707031 -28.8125 14.03125 -37.4375 C 10.363281 -46.070312 8.53125 -55.625 8.53125 -66.09375 C 8.53125 -78.207031 10.503906 -88.804688 14.453125 -97.890625 C 18.398438 -106.972656 23.769531 -114.453125 30.5625 -120.328125 C 37.351562 -126.203125 45.203125 -130.609375 54.109375 -133.546875 C 63.015625 -136.484375 72.421875 -137.953125 82.328125 -137.953125 C 95.546875 -137.953125 105.734375 -135.566406 112.890625 -130.796875 C 120.054688 -126.023438 123.640625 -119.875 123.640625 -112.34375 C 123.640625 -108.851562 122.8125 -105.59375 121.15625 -102.5625 C 119.507812 -99.539062 117.582031 -96.925781 115.375 -94.71875 C 112.25 -96.1875 108.484375 -97.609375 104.078125 -98.984375 C 99.679688 -100.367188 94.910156 -101.0625 89.765625 -101.0625 Z M 89.765625 -101.0625 "/></g></g></g><g fill="#0769d7" fill-opacity="1"><g transform="translate(412.076939, 457.580417)"><g><path d="M 85.09375 4.40625 C 74.257812 4.40625 64.207031 2.890625 54.9375 -0.140625 C 45.664062 -3.171875 37.585938 -7.710938 30.703125 -13.765625 C 23.816406 -19.828125 18.398438 -27.445312 14.453125 -36.625 C 10.503906 -45.800781 8.53125 -56.539062 8.53125 -68.84375 C 8.53125 -80.957031 10.503906 -91.375 14.453125 -100.09375 C 18.398438 -108.8125 23.585938 -115.96875 30.015625 -121.5625 C 36.441406 -127.164062 43.785156 -131.296875 52.046875 -133.953125 C 60.304688 -136.617188 68.75 -137.953125 77.375 -137.953125 C 87.101562 -137.953125 95.957031 -136.484375 103.9375 -133.546875 C 111.925781 -130.609375 118.8125 -126.566406 124.59375 -121.421875 C 130.382812 -116.285156 134.882812 -110.140625 138.09375 -102.984375 C 141.300781 -95.828125 142.90625 -88.023438 142.90625 -79.578125 C 142.90625 -73.335938 141.160156 -68.5625 137.671875 -65.25 C 134.191406 -61.945312 129.328125 -59.835938 123.078125 -58.921875 L 55.078125 -48.734375 C 57.085938 -42.679688 61.210938 -38.140625 67.453125 -35.109375 C 73.703125 -32.078125 80.863281 -30.5625 88.9375 -30.5625 C 96.46875 -30.5625 103.582031 -31.523438 110.28125 -33.453125 C 116.976562 -35.378906 122.441406 -37.628906 126.671875 -40.203125 C 129.609375 -38.367188 132.082031 -35.796875 134.09375 -32.484375 C 136.113281 -29.179688 137.125 -25.695312 137.125 -22.03125 C 137.125 -13.769531 133.269531 -7.617188 125.5625 -3.578125 C 119.6875 -0.460938 113.078125 1.644531 105.734375 2.75 C 98.390625 3.851562 91.507812 4.40625 85.09375 4.40625 Z M 77.375 -103.8125 C 72.96875 -103.8125 69.15625 -103.078125 65.9375 -101.609375 C 62.726562 -100.140625 60.113281 -98.253906 58.09375 -95.953125 C 56.082031 -93.660156 54.570312 -91.09375 53.5625 -88.25 C 52.550781 -85.40625 51.953125 -82.515625 51.765625 -79.578125 L 98.859375 -87.28125 C 98.304688 -90.957031 96.285156 -94.628906 92.796875 -98.296875 C 89.304688 -101.972656 84.164062 -103.8125 77.375 -103.8125 Z M 77.375 -103.8125 "/></g></g></g><g fill="#0769d7" fill-opacity="1"><g transform="translate(563.250682, 457.580417)"><g><path d="M 13.21875 -171 C 13.21875 -177.976562 15.554688 -183.851562 20.234375 -188.625 C 24.921875 -193.394531 31.117188 -195.78125 38.828125 -195.78125 C 46.535156 -195.78125 52.726562 -193.394531 57.40625 -188.625 C 62.09375 -183.851562 64.4375 -177.976562 64.4375 -171 C 64.4375 -164.019531 62.09375 -158.144531 57.40625 -153.375 C 52.726562 -148.601562 46.535156 -146.21875 38.828125 -146.21875 C 31.117188 -146.21875 24.921875 -148.601562 20.234375 -153.375 C 15.554688 -158.144531 13.21875 -164.019531 13.21875 -171 Z M 62.234375 -0.28125 C 60.210938 0.09375 57.226562 0.597656 53.28125 1.234375 C 49.332031 1.878906 45.335938 2.203125 41.296875 2.203125 C 37.265625 2.203125 33.640625 1.925781 30.421875 1.375 C 27.210938 0.820312 24.503906 -0.273438 22.296875 -1.921875 C 20.097656 -3.578125 18.398438 -5.828125 17.203125 -8.671875 C 16.015625 -11.515625 15.421875 -15.234375 15.421875 -19.828125 L 15.421875 -131.890625 C 17.441406 -132.265625 20.425781 -132.769531 24.375 -133.40625 C 28.320312 -134.050781 32.3125 -134.375 36.34375 -134.375 C 40.382812 -134.375 44.007812 -134.097656 47.21875 -133.546875 C 50.4375 -132.992188 53.144531 -131.890625 55.34375 -130.234375 C 57.550781 -128.585938 59.25 -126.34375 60.4375 -123.5 C 61.632812 -120.65625 62.234375 -116.9375 62.234375 -112.34375 Z M 62.234375 -0.28125 "/></g></g></g><g fill="#0769d7" fill-opacity="1"><g transform="translate(640.902778, 457.580417)"><g><path d="M 61.125 -45.984375 C 61.125 -41.210938 62.640625 -37.816406 65.671875 -35.796875 C 68.703125 -33.773438 72.972656 -32.765625 78.484375 -32.765625 C 81.234375 -32.765625 84.078125 -32.992188 87.015625 -33.453125 C 89.953125 -33.910156 92.519531 -34.507812 94.71875 -35.25 C 96.375 -33.226562 97.796875 -30.976562 98.984375 -28.5 C 100.179688 -26.019531 100.78125 -23.035156 100.78125 -19.546875 C 100.78125 -12.578125 98.164062 -6.890625 92.9375 -2.484375 C 87.707031 1.921875 78.484375 4.125 65.265625 4.125 C 49.109375 4.125 36.671875 0.457031 27.953125 -6.875 C 19.234375 -14.21875 14.875 -26.15625 14.875 -42.6875 L 14.875 -160.53125 C 16.882812 -161.082031 19.769531 -161.675781 23.53125 -162.3125 C 27.300781 -162.957031 31.296875 -163.28125 35.515625 -163.28125 C 43.597656 -163.28125 49.882812 -161.859375 54.375 -159.015625 C 58.875 -156.171875 61.125 -150.160156 61.125 -140.984375 L 61.125 -123.359375 L 97.203125 -123.359375 C 98.304688 -121.335938 99.363281 -118.8125 100.375 -115.78125 C 101.382812 -112.757812 101.890625 -109.410156 101.890625 -105.734375 C 101.890625 -99.304688 100.460938 -94.671875 97.609375 -91.828125 C 94.765625 -88.984375 90.957031 -87.5625 86.1875 -87.5625 L 61.125 -87.5625 Z M 61.125 -45.984375 "/></g></g></g><g fill="#0769d7" fill-opacity="1"><g transform="translate(751.047624, 457.580417)"><g><path d="M 71.59375 -29.734375 C 74.71875 -29.734375 78.160156 -30.054688 81.921875 -30.703125 C 85.679688 -31.347656 88.476562 -32.21875 90.3125 -33.3125 L 90.3125 -55.34375 L 70.484375 -53.6875 C 65.347656 -53.320312 61.128906 -52.222656 57.828125 -50.390625 C 54.523438 -48.554688 52.875 -45.800781 52.875 -42.125 C 52.875 -38.457031 54.296875 -35.472656 57.140625 -33.171875 C 59.984375 -30.878906 64.800781 -29.734375 71.59375 -29.734375 Z M 69.390625 -137.953125 C 79.304688 -137.953125 88.347656 -136.941406 96.515625 -134.921875 C 104.679688 -132.898438 111.65625 -129.820312 117.4375 -125.6875 C 123.21875 -121.5625 127.671875 -116.332031 130.796875 -110 C 133.921875 -103.664062 135.484375 -96.1875 135.484375 -87.5625 L 135.484375 -25.890625 C 135.484375 -21.109375 134.148438 -17.203125 131.484375 -14.171875 C 128.816406 -11.148438 125.648438 -8.535156 121.984375 -6.328125 C 110.046875 0.828125 93.25 4.40625 71.59375 4.40625 C 61.863281 4.40625 53.097656 3.488281 45.296875 1.65625 C 37.492188 -0.175781 30.789062 -2.925781 25.1875 -6.59375 C 19.59375 -10.269531 15.28125 -14.953125 12.25 -20.640625 C 9.21875 -26.335938 7.703125 -32.953125 7.703125 -40.484375 C 7.703125 -53.148438 11.46875 -62.878906 19 -69.671875 C 26.53125 -76.460938 38.1875 -80.679688 53.96875 -82.328125 L 90.046875 -86.1875 L 90.046875 -88.109375 C 90.046875 -93.429688 87.703125 -97.238281 83.015625 -99.53125 C 78.335938 -101.832031 71.59375 -102.984375 62.78125 -102.984375 C 55.800781 -102.984375 49.007812 -102.25 42.40625 -100.78125 C 35.800781 -99.3125 29.832031 -97.476562 24.5 -95.28125 C 22.113281 -96.925781 20.09375 -99.445312 18.4375 -102.84375 C 16.789062 -106.238281 15.96875 -109.773438 15.96875 -113.453125 C 15.96875 -118.222656 17.113281 -122.03125 19.40625 -124.875 C 21.707031 -127.71875 25.242188 -130.148438 30.015625 -132.171875 C 35.335938 -134.191406 41.625 -135.660156 48.875 -136.578125 C 56.125 -137.492188 62.960938 -137.953125 69.390625 -137.953125 Z M 69.390625 -137.953125 "/></g></g></g><g fill="#0769d7" fill-opacity="1"><g transform="translate(900.844554, 457.580417)"><g><path d="M 127.21875 -39.921875 C 127.21875 -25.972656 121.984375 -15.050781 111.515625 -7.15625 C 101.054688 0.738281 85.640625 4.6875 65.265625 4.6875 C 57.546875 4.6875 50.382812 4.132812 43.78125 3.03125 C 37.175781 1.925781 31.53125 0.226562 26.84375 -2.0625 C 22.164062 -4.351562 18.492188 -7.242188 15.828125 -10.734375 C 13.171875 -14.222656 11.84375 -18.351562 11.84375 -23.125 C 11.84375 -27.53125 12.757812 -31.25 14.59375 -34.28125 C 16.425781 -37.3125 18.628906 -39.835938 21.203125 -41.859375 C 26.523438 -38.921875 32.628906 -36.300781 39.515625 -34 C 46.398438 -31.707031 54.335938 -30.5625 63.328125 -30.5625 C 69.023438 -30.5625 73.382812 -31.382812 76.40625 -33.03125 C 79.4375 -34.6875 80.953125 -36.894531 80.953125 -39.65625 C 80.953125 -42.21875 79.847656 -44.234375 77.640625 -45.703125 C 75.441406 -47.171875 71.773438 -48.367188 66.640625 -49.296875 L 58.375 -50.9375 C 42.40625 -54.0625 30.519531 -58.972656 22.71875 -65.671875 C 14.914062 -72.367188 11.015625 -81.960938 11.015625 -94.453125 C 11.015625 -101.242188 12.484375 -107.390625 15.421875 -112.890625 C 18.359375 -118.398438 22.488281 -122.988281 27.8125 -126.65625 C 33.132812 -130.332031 39.507812 -133.179688 46.9375 -135.203125 C 54.375 -137.222656 62.59375 -138.234375 71.59375 -138.234375 C 78.382812 -138.234375 84.765625 -137.726562 90.734375 -136.71875 C 96.703125 -135.707031 101.882812 -134.191406 106.28125 -132.171875 C 110.6875 -130.148438 114.175781 -127.53125 116.75 -124.3125 C 119.320312 -121.101562 120.609375 -117.296875 120.609375 -112.890625 C 120.609375 -108.671875 119.828125 -105.046875 118.265625 -102.015625 C 116.703125 -98.992188 114.726562 -96.472656 112.34375 -94.453125 C 110.875 -95.367188 108.671875 -96.332031 105.734375 -97.34375 C 102.796875 -98.351562 99.582031 -99.269531 96.09375 -100.09375 C 92.613281 -100.914062 89.082031 -101.601562 85.5 -102.15625 C 81.914062 -102.707031 78.65625 -102.984375 75.71875 -102.984375 C 69.664062 -102.984375 64.984375 -102.296875 61.671875 -100.921875 C 58.367188 -99.546875 56.71875 -97.390625 56.71875 -94.453125 C 56.71875 -92.429688 57.632812 -90.773438 59.46875 -89.484375 C 61.3125 -88.203125 64.800781 -87.007812 69.9375 -85.90625 L 78.484375 -83.984375 C 96.097656 -79.941406 108.625 -74.382812 116.0625 -67.3125 C 123.5 -60.25 127.21875 -51.117188 127.21875 -39.921875 Z M 127.21875 -39.921875 "/></g></g></g><g clip-path="url(#e59885a8ca)"><g clip-path="url(#12fb883066)"><g clip-path="url(#6571eda3d3)"><path fill="#0769d7" d="M 1391.699219 314.027344 C 1225.921875 250.253906 1107.050781 294.738281 1037.898438 453.96875 C 1037.03125 455.96875 1034.035156 454.960938 1034.519531 452.835938 C 1047.214844 397.054688 1066.964844 349.324219 1096.199219 312.410156 C 1192.691406 190.578125 1367.148438 235.996094 1469.40625 324.949219 C 1474.503906 329.382812 1472.769531 337.558594 1466.335938 339.667969 C 1345.171875 379.378906 1280.214844 588.609375 1088.109375 414.347656 C 1165.363281 317.054688 1263.664062 275.90625 1391.699219 314.027344 " fill-opacity="1" fill-rule="evenodd"/></g></g></g><g fill="#0769d7" fill-opacity="1"><g transform="translate(41.490726, 572.947898)"><g><path d="M 14.578125 -53.203125 L 14.578125 0 L 8.15625 0 L 8.15625 -65.125 L 13.109375 -65.125 L 56.21875 -10.921875 L 56.21875 -65.03125 L 62.640625 -65.03125 L 62.640625 0 L 57.046875 0 Z M 14.578125 -53.203125 "/></g></g></g><g fill="#0769d7" fill-opacity="1"><g transform="translate(112.255068, 572.947898)"><g><path d="M 28.34375 -65.125 L 33.75 -65.125 L 60.8125 0 L 54.015625 0 L 45.578125 -20.359375 L 16.328125 -20.359375 L 7.984375 0 L 1.09375 0 Z M 44.109375 -25.40625 L 31 -57.59375 L 17.703125 -25.40625 Z M 44.109375 -25.40625 "/></g></g></g><g fill="#0769d7" fill-opacity="1"><g transform="translate(174.219703, 572.947898)"><g><path d="M 54.390625 -59.4375 L 31.1875 -59.4375 L 31.1875 0 L 24.765625 0 L 24.765625 -59.4375 L 1.5625 -59.4375 L 1.5625 -65.125 L 54.390625 -65.125 Z M 54.390625 -59.4375 "/></g></g></g><g fill="#0769d7" fill-opacity="1"><g transform="translate(230.134483, 572.947898)"><g><path d="M 34.578125 -5.3125 C 38.671875 -5.3125 42.078125 -6.09375 44.796875 -7.65625 C 47.523438 -9.21875 49.695312 -11.265625 51.3125 -13.796875 C 52.9375 -16.335938 54.066406 -19.226562 54.703125 -22.46875 C 55.347656 -25.707031 55.671875 -28.976562 55.671875 -32.28125 L 55.671875 -65.125 L 62.09375 -65.125 L 62.09375 -32.28125 C 62.09375 -27.882812 61.601562 -23.710938 60.625 -19.765625 C 59.644531 -15.816406 58.066406 -12.34375 55.890625 -9.34375 C 53.722656 -6.351562 50.894531 -3.972656 47.40625 -2.203125 C 43.925781 -0.429688 39.679688 0.453125 34.671875 0.453125 C 29.535156 0.453125 25.207031 -0.476562 21.6875 -2.34375 C 18.175781 -4.207031 15.347656 -6.664062 13.203125 -9.71875 C 11.066406 -12.78125 9.539062 -16.265625 8.625 -20.171875 C 7.707031 -24.085938 7.25 -28.125 7.25 -32.28125 L 7.25 -65.125 L 13.578125 -65.125 L 13.578125 -32.28125 C 13.578125 -28.863281 13.910156 -25.53125 14.578125 -22.28125 C 15.253906 -19.039062 16.398438 -16.164062 18.015625 -13.65625 C 19.640625 -11.15625 21.796875 -9.140625 24.484375 -7.609375 C 27.179688 -6.078125 30.546875 -5.3125 34.578125 -5.3125 Z M 34.578125 -5.3125 "/></g></g></g><g fill="#0769d7" fill-opacity="1"><g transform="translate(299.340516, 572.947898)"><g><path d="M 8.15625 0 L 8.15625 -65.125 L 35.671875 -65.125 C 38.484375 -65.125 41.066406 -64.523438 43.421875 -63.328125 C 45.773438 -62.140625 47.804688 -60.582031 49.515625 -58.65625 C 51.234375 -56.726562 52.566406 -54.539062 53.515625 -52.09375 C 54.460938 -49.644531 54.9375 -47.171875 54.9375 -44.671875 C 54.9375 -42.285156 54.582031 -40.003906 53.875 -37.828125 C 53.175781 -35.660156 52.195312 -33.703125 50.9375 -31.953125 C 49.6875 -30.210938 48.175781 -28.742188 46.40625 -27.546875 C 44.632812 -26.359375 42.648438 -25.550781 40.453125 -25.125 L 56.40625 0 L 49.15625 0 L 33.84375 -24.03125 L 14.578125 -24.03125 L 14.578125 0 Z M 14.578125 -29.71875 L 35.859375 -29.71875 C 37.753906 -29.71875 39.484375 -30.128906 41.046875 -30.953125 C 42.609375 -31.773438 43.9375 -32.890625 45.03125 -34.296875 C 46.132812 -35.703125 46.988281 -37.289062 47.59375 -39.0625 C 48.207031 -40.84375 48.515625 -42.710938 48.515625 -44.671875 C 48.515625 -46.628906 48.160156 -48.507812 47.453125 -50.3125 C 46.753906 -52.113281 45.804688 -53.6875 44.609375 -55.03125 C 43.421875 -56.375 42.015625 -57.441406 40.390625 -58.234375 C 38.773438 -59.035156 37.082031 -59.4375 35.3125 -59.4375 L 14.578125 -59.4375 Z M 14.578125 -29.71875 "/></g></g></g><g fill="#0769d7" fill-opacity="1"><g transform="translate(359.196855, 572.947898)"><g><path d="M 28.34375 -65.125 L 33.75 -65.125 L 60.8125 0 L 54.015625 0 L 45.578125 -20.359375 L 16.328125 -20.359375 L 7.984375 0 L 1.09375 0 Z M 44.109375 -25.40625 L 31 -57.59375 L 17.703125 -25.40625 Z M 44.109375 -25.40625 "/></g></g></g><g fill="#0769d7" fill-opacity="1"><g transform="translate(421.16149, 572.947898)"><g><path d="M 8.15625 0 L 8.15625 -65.125 L 14.578125 -65.125 L 14.578125 0 Z M 8.15625 0 "/></g></g></g><g fill="#0769d7" fill-opacity="1"><g transform="translate(443.894088, 572.947898)"><g><path d="M 46.21875 -52.921875 C 44.382812 -55.003906 41.9375 -56.6875 38.875 -57.96875 C 35.820312 -59.25 32.34375 -59.890625 28.4375 -59.890625 C 22.6875 -59.890625 18.492188 -58.800781 15.859375 -56.625 C 13.234375 -54.457031 11.921875 -51.507812 11.921875 -47.78125 C 11.921875 -45.820312 12.269531 -44.21875 12.96875 -42.96875 C 13.675781 -41.71875 14.765625 -40.632812 16.234375 -39.71875 C 17.703125 -38.800781 19.582031 -38.003906 21.875 -37.328125 C 24.164062 -36.660156 26.867188 -35.988281 29.984375 -35.3125 C 33.472656 -34.582031 36.609375 -33.753906 39.390625 -32.828125 C 42.171875 -31.910156 44.539062 -30.765625 46.5 -29.390625 C 48.457031 -28.015625 49.957031 -26.347656 51 -24.390625 C 52.039062 -22.441406 52.5625 -20 52.5625 -17.0625 C 52.5625 -14.0625 51.976562 -11.460938 50.8125 -9.265625 C 49.644531 -7.066406 48.019531 -5.234375 45.9375 -3.765625 C 43.863281 -2.296875 41.390625 -1.207031 38.515625 -0.5 C 35.648438 0.195312 32.503906 0.546875 29.078125 0.546875 C 18.984375 0.546875 10.269531 -2.597656 2.9375 -8.890625 L 6.140625 -14.125 C 7.304688 -12.90625 8.695312 -11.742188 10.3125 -10.640625 C 11.9375 -9.535156 13.738281 -8.570312 15.71875 -7.75 C 17.707031 -6.925781 19.832031 -6.285156 22.09375 -5.828125 C 24.363281 -5.367188 26.753906 -5.140625 29.265625 -5.140625 C 34.453125 -5.140625 38.5 -6.070312 41.40625 -7.9375 C 44.3125 -9.800781 45.765625 -12.628906 45.765625 -16.421875 C 45.765625 -18.429688 45.351562 -20.125 44.53125 -21.5 C 43.707031 -22.882812 42.46875 -24.078125 40.8125 -25.078125 C 39.164062 -26.085938 37.117188 -26.957031 34.671875 -27.6875 C 32.222656 -28.425781 29.378906 -29.164062 26.140625 -29.90625 C 22.710938 -30.695312 19.710938 -31.519531 17.140625 -32.375 C 14.578125 -33.226562 12.410156 -34.296875 10.640625 -35.578125 C 8.867188 -36.867188 7.535156 -38.414062 6.640625 -40.21875 C 5.753906 -42.019531 5.3125 -44.238281 5.3125 -46.875 C 5.3125 -49.863281 5.878906 -52.535156 7.015625 -54.890625 C 8.148438 -57.242188 9.753906 -59.203125 11.828125 -60.765625 C 13.910156 -62.328125 16.359375 -63.519531 19.171875 -64.34375 C 21.984375 -65.164062 25.101562 -65.578125 28.53125 -65.578125 C 32.863281 -65.578125 36.726562 -64.921875 40.125 -63.609375 C 43.519531 -62.296875 46.59375 -60.445312 49.34375 -58.0625 Z M 46.21875 -52.921875 "/></g></g></g></svg>